<svg version="1.1" id="Layer_1" xmlns="http://www.w3.org/2000/svg" xmlns:xlink="http://www.w3.org/1999/xlink" x="0px" y="0px"
	 width="100%" viewBox="0 0 200 200" enable-background="new 0 0 200 200" xml:space="preserve">
<path fill="#FEFEFE" opacity="1.000000" stroke="none" 
	d="
M201.000000,83.000000 
	C201.000000,122.288948 201.000000,161.577896 201.000000,200.933411 
	C134.453018,200.933411 67.905952,200.933411 1.000000,200.933411 
	C1.000000,177.980347 1.000000,154.958832 1.464077,131.447266 
	C5.913306,130.957230 9.898458,130.957230 14.255834,130.957230 
	C15.989306,118.186653 17.695892,105.614143 19.606945,91.535316 
	C24.628513,100.899414 28.935057,108.930145 33.430374,117.312904 
	C40.353779,108.637932 46.849064,100.499397 54.279926,91.188591 
	C52.413799,105.372147 50.755299,117.977623 49.081787,130.697174 
	C53.821987,130.697174 58.076710,130.697174 62.572201,130.697174 
	C65.271255,110.404861 67.938370,90.352707 70.625420,70.150612 
	C61.786522,68.928322 54.208752,68.805412 49.277153,78.169060 
	C46.056854,84.283455 40.994640,89.427757 36.479729,95.372314 
	C32.485943,87.308571 28.968475,79.965874 25.175879,72.768150 
	C24.483063,71.453308 22.741007,70.006927 21.359201,69.869560 
	C17.426092,69.478584 13.428895,69.732323 9.127405,69.732323 
	C7.048348,85.346977 5.051654,100.655357 2.917141,115.944496 
	C2.674155,117.684959 1.657770,119.317444 1.000000,121.000000 
	C1.000000,81.043671 1.000000,41.087341 1.000000,1.065507 
	C67.550156,1.065507 134.100388,1.065507 201.000000,1.065507 
	C201.000000,27.686544 201.000000,54.374615 200.534393,81.585663 
	C195.604782,82.062775 191.137909,81.911865 186.678574,82.034645 
	C185.329605,82.071793 183.561844,82.470680 182.739395,83.383064 
	C179.023743,87.505028 174.043762,91.297859 176.787628,98.027168 
	C173.976746,93.513138 171.659958,88.959694 169.020721,84.601524 
	C168.313507,83.433670 166.663147,82.211632 165.376495,82.131874 
	C160.648987,81.838806 155.892380,82.015640 150.245087,82.015640 
	C154.883606,90.462891 159.149002,98.230637 163.318695,106.346512 
	C156.980469,114.535187 150.737961,122.375725 143.841934,131.037079 
	C148.836136,131.037079 152.939804,131.394547 156.938034,130.899872 
	C159.249924,130.613831 161.717590,129.343018 163.534012,127.821579 
	C166.267853,125.531723 168.492554,122.634010 170.994904,120.355270 
	C172.649689,123.367340 174.117096,126.108017 175.897598,128.627426 
	C176.632614,129.667480 178.008163,130.848862 179.146454,130.906967 
	C184.044174,131.156998 188.961960,131.013779 194.630325,131.013779 
	C190.584015,123.642845 187.001526,116.953583 183.197617,110.392700 
	C182.718613,109.566528 181.074478,109.415886 179.985641,108.628128 
	C180.230392,107.535027 180.459686,106.766045 180.741760,105.664536 
	C180.852371,104.888184 180.910187,104.444359 181.331223,103.994049 
	C183.052277,102.930298 184.616638,102.054520 185.732620,100.784714 
	C190.889984,94.916443 195.922653,88.938583 201.000000,83.000000 
M126.147652,122.750481 
	C127.972977,109.278183 129.798309,95.805885 131.654724,82.104126 
	C138.057251,82.104126 144.019302,82.104126 150.282547,82.104126 
	C150.827759,77.983101 151.339249,74.116989 151.888275,69.967148 
	C134.713806,69.967148 117.974503,69.967148 100.907608,69.967148 
	C100.411575,73.974808 99.934425,77.829918 99.383850,82.278305 
	C105.874130,82.278305 111.768311,82.278305 117.945503,82.278305 
	C115.776756,98.743370 113.681961,114.646996 111.562157,130.740479 
	C116.390778,130.740479 120.641273,130.740479 125.020081,130.740479 
	C125.382187,128.233398 125.714371,125.933456 126.147652,122.750481 
M81.106850,70.165054 
	C79.394264,82.168541 77.650131,94.167641 75.980095,106.177048 
	C74.848495,114.314468 73.821014,122.466377 72.718132,130.830536 
	C77.561417,130.830536 81.688126,130.830536 86.266052,130.830536 
	C88.960915,110.604187 91.649330,90.426208 94.399696,69.783264 
	C89.846741,69.783264 85.895248,69.783264 81.106850,70.165054 
z"/>
<path fill="#0B0C0E" opacity="1.000000" stroke="none" 
	d="
M1.000000,121.454109 
	C1.657770,119.317444 2.674155,117.684959 2.917141,115.944496 
	C5.051654,100.655357 7.048348,85.346977 9.127405,69.732323 
	C13.428895,69.732323 17.426092,69.478584 21.359201,69.869560 
	C22.741007,70.006927 24.483063,71.453308 25.175879,72.768150 
	C28.968475,79.965874 32.485943,87.308571 36.479729,95.372314 
	C40.994640,89.427757 46.056854,84.283455 49.277153,78.169060 
	C54.208752,68.805412 61.786522,68.928322 70.625420,70.150612 
	C67.938370,90.352707 65.271255,110.404861 62.572201,130.697174 
	C58.076710,130.697174 53.821987,130.697174 49.081787,130.697174 
	C50.755299,117.977623 52.413799,105.372147 54.279926,91.188591 
	C46.849064,100.499397 40.353779,108.637932 33.430374,117.312904 
	C28.935057,108.930145 24.628513,100.899414 19.606945,91.535316 
	C17.695892,105.614143 15.989306,118.186653 14.255834,130.957230 
	C9.898458,130.957230 5.913306,130.957230 1.464077,130.978607 
	C1.000000,127.969406 1.000000,124.938812 1.000000,121.454109 
z"/>
<path fill="#983E40" opacity="1.000000" stroke="none" 
	d="
M177.160736,98.061028 
	C174.043762,91.297859 179.023743,87.505028 182.739395,83.383064 
	C183.561844,82.470680 185.329605,82.071793 186.678574,82.034645 
	C191.137909,81.911865 195.604782,82.062775 200.534393,82.054321 
	C201.000000,82.000000 201.000000,82.500000 201.000000,82.750000 
	C195.922653,88.938583 190.889984,94.916443 185.732620,100.784714 
	C184.616638,102.054520 183.052277,102.930298 181.021240,103.870514 
	C179.285599,101.855988 178.223160,99.958504 177.160736,98.061028 
z"/>
<path fill="#0B0C0D" opacity="1.000000" stroke="none" 
	d="
M126.097107,123.192001 
	C125.714371,125.933456 125.382187,128.233398 125.020081,130.740479 
	C120.641273,130.740479 116.390778,130.740479 111.562157,130.740479 
	C113.681961,114.646996 115.776756,98.743370 117.945503,82.278305 
	C111.768311,82.278305 105.874130,82.278305 99.383850,82.278305 
	C99.934425,77.829918 100.411575,73.974808 100.907608,69.967148 
	C117.974503,69.967148 134.713806,69.967148 151.888275,69.967148 
	C151.339249,74.116989 150.827759,77.983101 150.282547,82.104126 
	C144.019302,82.104126 138.057251,82.104126 131.654724,82.104126 
	C129.798309,95.805885 127.972977,109.278183 126.097107,123.192001 
z"/>
<path fill="#0C0D0E" opacity="1.000000" stroke="none" 
	d="
M81.525299,69.974159 
	C85.895248,69.783264 89.846741,69.783264 94.399696,69.783264 
	C91.649330,90.426208 88.960915,110.604187 86.266052,130.830536 
	C81.688126,130.830536 77.561417,130.830536 72.718132,130.830536 
	C73.821014,122.466377 74.848495,114.314468 75.980095,106.177048 
	C77.650131,94.167641 79.394264,82.168541 81.525299,69.974159 
z"/>
<path fill="#943B3B" opacity="1.000000" stroke="none" 
	d="
M180.688965,105.997070 
	C180.459686,106.766045 180.230392,107.535027 179.780960,108.897980 
	C176.685120,112.992874 173.809402,116.493790 170.933685,119.994705 
	C168.492554,122.634010 166.267853,125.531723 163.534012,127.821579 
	C161.717590,129.343018 159.249924,130.613831 156.938034,130.899872 
	C152.939804,131.394547 148.836136,131.037079 143.841934,131.037079 
	C150.737961,122.375725 156.980469,114.535187 163.755890,106.349426 
	C169.755524,106.001831 175.222244,105.999451 180.688965,105.997070 
z"/>
<path fill="#0D0D0F" opacity="1.000000" stroke="none" 
	d="
M180.741760,105.664536 
	C175.222244,105.999451 169.755524,106.001831 163.851593,106.001297 
	C159.149002,98.230637 154.883606,90.462891 150.245087,82.015640 
	C155.892380,82.015640 160.648987,81.838806 165.376495,82.131874 
	C166.663147,82.211632 168.313507,83.433670 169.020721,84.601524 
	C171.659958,88.959694 173.976746,93.513138 176.787628,98.027168 
	C178.223160,99.958504 179.285599,101.855988 180.658020,103.876999 
	C180.910187,104.444359 180.852371,104.888184 180.741760,105.664536 
z"/>
<path fill="#0F0F10" opacity="1.000000" stroke="none" 
	d="
M170.994888,120.355270 
	C173.809402,116.493790 176.685120,112.992874 179.765503,109.222107 
	C181.074478,109.415886 182.718613,109.566528 183.197617,110.392700 
	C187.001526,116.953583 190.584015,123.642845 194.630325,131.013779 
	C188.961960,131.013779 184.044174,131.156998 179.146454,130.906967 
	C178.008163,130.848862 176.632614,129.667480 175.897598,128.627426 
	C174.117096,126.108017 172.649689,123.367340 170.994888,120.355270 
z"/>
</svg>