<?xml version="1.0" standalone="no"?>
<!DOCTYPE svg PUBLIC "-//W3C//DTD SVG 20010904//EN"
 "http://www.w3.org/TR/2001/REC-SVG-20010904/DTD/svg10.dtd">
<svg version="1.0" xmlns="http://www.w3.org/2000/svg"
 width="200.000000pt" height="200.000000pt" viewBox="0 0 200.000000 200.000000"
 preserveAspectRatio="xMidYMid meet">
<metadata>
Created by potrace 1.10, written by Peter Selinger 2001-2011
</metadata>
<g transform="translate(0.000000,200.000000) scale(0.100000,-0.100000)"
fill="#000000" stroke="none">
<path d="M73 1278 c-6 -46 -20 -171 -32 -278 -12 -107 -26 -208 -31 -224 -6
-16 -9 -31 -7 -32 1 -1 31 -4 67 -5 l65 -3 7 45 c3 24 14 115 24 202 9 86 20
157 23 156 3 0 35 -58 70 -130 36 -71 67 -129 70 -128 3 0 25 26 48 57 56 74
130 172 149 195 9 11 13 21 10 25 -13 12 -55 -24 -125 -110 -51 -63 -76 -87
-84 -79 -5 5 -28 45 -51 87 -23 42 -50 83 -62 91 -19 12 -24 11 -44 -5 -19
-16 -25 -39 -45 -180 -13 -88 -26 -166 -30 -172 -9 -14 -45 -13 -45 3 0 18 59
456 66 489 6 28 41 44 75 33 12 -4 39 -46 72 -112 28 -58 62 -113 75 -121 21
-14 25 -13 50 5 15 11 57 60 94 108 71 96 101 125 127 125 45 -1 45 -5 11
-266 -20 -155 -37 -254 -45 -263 -22 -22 -47 -6 -42 26 3 16 13 90 23 166 13
103 15 140 6 149 -17 17 -29 -23 -47 -163 -9 -67 -20 -144 -26 -172 -5 -28 -7
-53 -4 -55 5 -5 127 -3 132 2 2 2 14 88 28 192 13 104 31 241 40 304 8 63 15
116 15 118 0 1 -33 2 -73 2 l-73 0 -95 -129 c-51 -72 -98 -130 -102 -130 -4
-1 -10 7 -14 17 -3 9 -30 68 -60 130 l-53 112 -74 0 -73 0 -10 -82z"/>
<path d="M796 1303 c-7 -57 -17 -129 -56 -413 -11 -80 -20 -147 -20 -150 0 -3
30 -4 67 -3 l68 1 12 84 c13 90 50 375 59 448 3 25 8 55 11 68 5 21 3 22 -65
22 l-70 0 -6 -57z m90 -30 c-3 -21 -17 -130 -31 -243 -15 -113 -30 -215 -35
-227 -11 -26 -38 -31 -46 -9 -5 12 48 433 61 494 4 16 13 22 31 22 24 0 25 -2
20 -37z"/>
<path d="M1000 1333 c0 -16 -3 -45 -7 -66 l-6 -38 94 2 c52 1 94 -2 94 -7 -1
-5 -4 -34 -8 -64 -43 -303 -58 -422 -55 -424 2 -1 33 0 69 2 l66 4 6 51 c9 76
45 356 53 400 l6 37 93 0 93 0 66 -116 c36 -64 66 -121 66 -126 0 -6 -43 -61
-95 -123 -91 -108 -113 -144 -79 -131 9 3 46 6 84 6 l69 0 62 83 c34 45 78
101 97 125 l35 43 -27 47 c-14 26 -43 80 -63 120 l-37 72 -89 0 -89 0 6 48 c4
26 9 55 12 65 5 16 -12 17 -255 17 l-261 0 0 -27z m408 -23 c38 0 52 -4 52
-14 0 -19 -23 -26 -89 -26 -93 0 -96 -6 -130 -259 -28 -207 -36 -237 -66 -227
-14 4 -11 68 9 216 37 266 38 262 -71 270 -54 4 -68 9 -71 22 -3 15 8 18 75
21 43 2 114 3 158 1 44 -2 104 -4 133 -4z m287 -197 c25 -43 44 -82 42 -88 -5
-15 -43 -18 -67 -5 -19 10 -90 136 -90 160 0 5 16 10 35 10 33 0 37 -4 80 -77z
m75 -130 c0 -5 -15 -22 -33 -40 -17 -17 -57 -60 -87 -96 -55 -64 -80 -79 -114
-67 -16 5 -9 17 42 82 33 42 62 84 64 95 2 10 8 21 13 25 13 10 115 10 115 1z"/>
<path d="M1796 1186 c-20 -23 -36 -47 -36 -51 0 -12 54 -124 61 -124 3 -1 38
40 79 90 40 50 79 97 87 104 7 8 13 16 13 19 0 3 -38 6 -84 6 l-85 0 -35 -44z
m110 -1 c4 -9 -11 -36 -37 -66 -39 -47 -44 -50 -56 -33 -19 26 -16 45 10 75
33 39 73 50 83 24z"/>
<path d="M1790 936 c-8 -13 -28 -41 -44 -61 l-29 -36 23 -49 23 -49 86 -3 c47
-2 88 -2 90 -1 2 2 -8 24 -22 51 -15 26 -41 75 -59 110 -18 34 -37 62 -43 62
-5 0 -17 -11 -25 -24z m45 -83 c33 -50 33 -73 -2 -73 -54 0 -81 54 -46 92 9
10 17 18 19 18 2 0 15 -17 29 -37z"/>
</g>
</svg>
