<?xml version="1.0" standalone="no"?>
<!DOCTYPE svg PUBLIC "-//W3C//DTD SVG 20010904//EN"
 "http://www.w3.org/TR/2001/REC-SVG-20010904/DTD/svg10.dtd">
<svg version="1.0" xmlns="http://www.w3.org/2000/svg"
 width="180.000000pt" height="180.000000pt" viewBox="0 0 180.000000 180.000000"
 preserveAspectRatio="xMidYMid meet">
<metadata>
Created by potrace 1.10, written by Peter Selinger 2001-2011
</metadata>
<g transform="translate(0.000000,180.000000) scale(0.100000,-0.100000)"
fill="#000000" stroke="none">
<path d="M70 1248 c-1 -13 -16 -137 -34 -275 l-33 -253 58 0 c67 0 60 -17 85
198 10 83 21 152 24 151 3 0 30 -51 60 -114 30 -63 57 -114 60 -114 3 0 40 46
82 102 121 158 110 148 103 107 -5 -32 -45 -318 -45 -326 0 -2 27 -4 59 -4
l59 0 6 38 c10 62 66 485 66 499 0 9 -18 13 -64 13 l-64 0 -84 -114 c-46 -63
-85 -115 -88 -115 -3 -1 -30 51 -59 114 l-54 115 -68 0 c-65 0 -69 -1 -69 -22z
m106 -26 c6 -4 32 -49 59 -100 73 -143 88 -143 200 7 66 88 98 113 126 96 13
-9 9 -72 -21 -285 -23 -167 -24 -170 -45 -170 -19 0 -19 8 0 154 15 107 15
120 0 142 -28 43 -55 29 -130 -70 -27 -36 -55 -67 -61 -70 -6 -2 -29 27 -49
65 -47 85 -70 107 -93 93 -28 -18 -40 -54 -57 -179 -15 -113 -26 -145 -46
-145 -5 0 -9 10 -9 23 0 41 51 402 60 425 10 22 43 30 66 14z"/>
<path d="M710 1257 c0 -14 -56 -437 -66 -499 l-6 -38 61 0 c60 0 60 0 66 33
11 64 65 479 65 498 0 17 -7 19 -60 19 -43 0 -60 -4 -60 -13z m70 -71 c0 -69
-51 -411 -63 -418 -29 -18 -29 18 -3 218 31 228 32 234 52 234 9 0 14 -12 14
-34z"/>
<path d="M886 1233 c-13 -81 -16 -78 77 -75 l83 4 -13 -94 c-7 -51 -21 -150
-31 -220 l-18 -128 62 0 61 0 16 123 c9 67 22 166 29 220 l12 97 82 0 83 0 61
-111 61 -111 -37 -47 c-21 -25 -62 -74 -92 -108 l-54 -63 80 0 80 0 84 105
c46 58 83 111 83 118 0 7 -25 58 -55 115 l-54 102 -78 0 -77 0 5 33 c3 17 7
42 10 55 l4 22 -229 0 -228 0 -7 -37z m402 -20 c2 -9 -10 -13 -42 -13 -57 0
-91 -13 -110 -42 -8 -13 -24 -95 -36 -188 -24 -190 -26 -200 -46 -200 -19 0
-18 37 6 212 10 79 16 154 13 167 -7 29 -52 51 -103 51 -38 0 -49 8 -33 24 4
3 83 5 177 4 125 -2 170 -6 174 -15z m220 -174 c36 -65 33 -85 -10 -74 -17 4
-33 25 -57 70 -36 72 -35 89 7 74 18 -6 38 -29 60 -70z m60 -108 c-1 -5 -38
-46 -81 -90 -57 -59 -84 -81 -103 -81 -29 0 -29 2 33 81 24 30 43 62 43 70 0
9 3 19 7 22 10 11 105 8 101 -2z"/>
<path d="M1594 1114 l-38 -47 29 -53 c16 -30 32 -54 35 -54 4 0 17 14 30 32
13 17 47 60 77 94 29 35 53 66 53 69 0 3 -33 5 -74 5 l-74 0 -38 -46z m96 -6
c-1 -7 -16 -31 -35 -53 -29 -33 -37 -37 -45 -25 -14 22 -12 34 11 64 21 27 69
37 69 14z"/>
<path d="M1566 864 l-46 -56 25 -42 24 -41 81 -3 81 -3 -24 38 c-14 22 -39 67
-56 101 -17 34 -33 62 -35 62 -2 0 -24 -25 -50 -56z m64 -49 c22 -36 20 -55
-7 -55 -19 0 -53 28 -53 43 0 9 29 47 36 47 1 0 12 -16 24 -35z"/>
</g>
</svg>
